{"title":"Marvel One Shot Item 47 2012 BRRip XviD AC3 - MAGiX","uid":7571426,"size":308618090,"categoryP":"video","categoryS":"movies","magnet":"?xt=urn:btih:5c647498529288d48cba104b3e2be15ba9e10aab&amp;dn=Marvel+One+Shot+Item+47+2012+BRRip+XviD+AC3+-+MAGiX&amp;tr=udp%3A%2F%2Ftracker.openbittorrent.com%3A80&amp;tr=udp%3A%2F%2Fopen.demonii.com%3A1337&amp;tr=udp%3A%2F%2Ftracker.coppersurfer.tk%3A6969&amp;tr=udp%3A%2F%2Fexodus.desync.com%3A6969","seeders":0,"leechers":1,"uploader":"OlaWiki","files":-1,"time":1346000139,"description":" &lt;a href=&quot;http://www.imdb.com/title/tt2247732/&quot; rel=&quot;nofollow&quot; target=&quot;_NEW&quot;&gt;http://www.imdb.com/title/tt2247732/&lt;/a&gt;\n \n***INFO***\n Format                                   : AVI\n Format/Info                              : Audio Video Interleave\n File size                                : 294 MiB\n Duration                                 : 11mn 20s\n Overall bit rate                         : 3 626 Kbps\n \n\nVideo\n ID                                       : 0\n Format                                   : xvid\n Codec ID                                 : xvid\n Duration                                 : 11mn 20s\n Bit rate                                 : 3 296 Kbps\n Width                                    : 1 280 pixels\n Height                                   : 528 pixels\n Display aspect ratio                     : 2.40:1\n Frame rate                               : 24.000 fps\n Bits/(Pixel*Frame)                       : 0.203\n Stream size                              : 267 MiB (91%)\n \nAudio\n ID                                       : 1\n Format                                   : AC-3\n Format/Info                              : Audio Coding 3\n Mode extension                           : CM (complete main)\n Format settings, Endianness              : Big\n Codec ID                                 : 2000\n Duration                                 : 11mn 20s\n Bit rate mode                            : Constant\n Bit rate                                 : 320 Kbps\n Channel positions                        : Front: L R\n Sampling rate                            : 48.0 KHz\n Bit depth                                : 16 bits\n Compression mode                         : Lossy\n Stream size                              : 26.0 MiB (9%)\n Alignment                                : Aligned on interleaves\n Interleave, duration                     : 32 ms (0.77 video frame)\n Interleave, preload duration             : 32 ms\n\n\n ","torrent":{"xt":"urn:btih:5c647498529288d48cba104b3e2be15ba9e10aab","amp;dn":"Marvel+One+Shot+Item+47+2012+BRRip+XviD+AC3+-+MAGiX","amp;tr":["udp%3A%2F%2Ftracker.openbittorrent.com%3A80","udp%3A%2F%2Fopen.demonii.com%3A1337","udp%3A%2F%2Ftracker.coppersurfer.tk%3A6969","udp%3A%2F%2Fexodus.desync.com%3A6969"],"infoHash":"5c647498529288d48cba104b3e2be15ba9e10aab","infoHashBuffer":{"type":"Buffer","data":[92,100,116,152,82,146,136,212,140,186,16,75,62,43,225,91,169,225,10,171]},"announce":[],"urlList":[]}}